<svg xmlns="http://www.w3.org/2000/svg" xmlns:xlink="http://www.w3.org/1999/xlink" width="500" zoomAndPan="magnify" viewBox="0 0 375 374.999991" height="500" preserveAspectRatio="xMidYMid meet" version="1.0"><defs><g/></defs><rect x="-37.5" width="450" fill="rgb(100%, 100%, 100%)" y="-37.499999" height="449.999989" fill-opacity="1"/><rect x="-37.5" width="450" fill="rgb(100%, 100%, 100%)" y="-37.499999" height="449.999989" fill-opacity="1"/><rect x="-37.5" width="450" fill="rgb(100%, 100%, 100%)" y="-37.499999" height="449.999989" fill-opacity="1"/><rect x="-37.5" width="450" fill="rgb(100%, 100%, 100%)" y="-37.499999" height="449.999989" fill-opacity="1"/><path fill="rgb(8.628845%, 33.329773%, 39.219666%)" d="M 93.488281 26.132812 L 281.738281 26.132812 L 281.738281 214.382812 L 93.488281 214.382812 L 93.488281 26.132812 " fill-opacity="1" fill-rule="nonzero"/><path fill="rgb(100%, 100%, 100%)" d="M 54.59375 123.507812 L 184.289062 -12.933594 L 320.734375 116.761719 L 191.035156 253.207031 L 54.59375 123.507812 " fill-opacity="1" fill-rule="nonzero"/><path fill="rgb(8.628845%, 33.329773%, 39.219666%)" d="M 151.671875 84.164062 L 223.671875 84.164062 L 223.671875 156.164062 L 151.671875 156.164062 L 151.671875 84.164062 " fill-opacity="1" fill-rule="nonzero"/><path fill="rgb(100%, 100%, 100%)" d="M 151.675781 121.054688 L 186.8125 84.089844 L 223.777344 119.226562 L 188.636719 156.191406 L 151.675781 121.054688 " fill-opacity="1" fill-rule="nonzero"/><g fill="rgb(8.628845%, 33.329773%, 39.219666%)" fill-opacity="1"><g transform="translate(54.410821, 295.441476)"><g><path d="M 19.125 3.421875 C 17.125 3.421875 15.460938 3.195312 14.140625 2.75 C 12.816406 2.300781 11.769531 1.800781 11 1.25 C 10.226562 0.695312 9.6875 0.164062 9.375 -0.34375 C 9.070312 -0.851562 8.921875 -1.1875 8.921875 -1.34375 C 8.921875 -1.894531 9.039062 -2.484375 9.28125 -3.109375 C 9.53125 -3.742188 9.835938 -4.332031 10.203125 -4.875 C 10.578125 -5.414062 10.976562 -5.867188 11.40625 -6.234375 C 11.84375 -6.609375 12.226562 -6.796875 12.5625 -6.796875 C 13 -6.796875 13.351562 -6.515625 13.625 -5.953125 C 13.6875 -5.898438 13.84375 -5.75 14.09375 -5.5 C 14.34375 -5.25 14.6875 -4.992188 15.125 -4.734375 C 15.570312 -4.472656 16.125 -4.234375 16.78125 -4.015625 C 17.445312 -3.804688 18.226562 -3.703125 19.125 -3.703125 C 21.070312 -3.703125 22.660156 -4.289062 23.890625 -5.46875 C 25.117188 -6.65625 25.734375 -8.265625 25.734375 -10.296875 C 25.734375 -11.710938 25.398438 -12.972656 24.734375 -14.078125 C 24.078125 -15.191406 23.207031 -16.226562 22.125 -17.1875 C 21.050781 -18.144531 19.820312 -19.078125 18.4375 -19.984375 C 17.050781 -20.890625 15.632812 -21.832031 14.1875 -22.8125 C 12.738281 -23.800781 11.320312 -24.863281 9.9375 -26 C 8.550781 -27.144531 7.316406 -28.457031 6.234375 -29.9375 C 5.160156 -31.414062 4.289062 -33.085938 3.625 -34.953125 C 2.96875 -36.816406 2.640625 -38.953125 2.640625 -41.359375 C 2.640625 -43.421875 2.992188 -45.5 3.703125 -47.59375 C 4.410156 -49.6875 5.382812 -51.679688 6.625 -53.578125 C 7.875 -55.472656 9.34375 -57.242188 11.03125 -58.890625 C 12.726562 -60.535156 14.5625 -61.96875 16.53125 -63.1875 C 18.507812 -64.40625 20.566406 -65.359375 22.703125 -66.046875 C 24.847656 -66.742188 27 -67.09375 29.15625 -67.09375 C 31 -67.09375 32.660156 -66.796875 34.140625 -66.203125 C 35.617188 -65.617188 36.863281 -64.796875 37.875 -63.734375 C 38.894531 -62.671875 39.679688 -61.390625 40.234375 -59.890625 C 40.796875 -58.398438 41.078125 -56.734375 41.078125 -54.890625 C 41.078125 -53.128906 40.769531 -51.398438 40.15625 -49.703125 C 39.539062 -48.015625 38.722656 -46.414062 37.703125 -44.90625 C 36.679688 -43.394531 35.53125 -42 34.25 -40.71875 C 32.976562 -39.445312 31.671875 -38.34375 30.328125 -37.40625 C 28.992188 -36.46875 27.691406 -35.734375 26.421875 -35.203125 C 25.160156 -34.679688 24.054688 -34.421875 23.109375 -34.421875 C 22.273438 -34.421875 21.523438 -34.613281 20.859375 -35 C 20.203125 -35.382812 19.648438 -35.859375 19.203125 -36.421875 C 18.753906 -36.992188 18.40625 -37.597656 18.15625 -38.234375 C 17.90625 -38.867188 17.78125 -39.429688 17.78125 -39.921875 C 17.78125 -40.316406 17.832031 -40.578125 17.9375 -40.703125 C 18.050781 -40.828125 18.207031 -40.878906 18.40625 -40.859375 C 18.613281 -40.847656 18.867188 -40.800781 19.171875 -40.71875 C 19.484375 -40.644531 19.835938 -40.609375 20.234375 -40.609375 C 21.523438 -40.609375 22.957031 -41.054688 24.53125 -41.953125 C 26.101562 -42.847656 27.582031 -43.988281 28.96875 -45.375 C 30.351562 -46.757812 31.515625 -48.28125 32.453125 -49.9375 C 33.398438 -51.601562 33.875 -53.222656 33.875 -54.796875 C 33.875 -56.398438 33.476562 -57.660156 32.6875 -58.578125 C 31.90625 -59.503906 30.570312 -59.96875 28.6875 -59.96875 C 27.519531 -59.96875 26.25 -59.742188 24.875 -59.296875 C 23.507812 -58.847656 22.132812 -58.222656 20.75 -57.421875 C 19.363281 -56.628906 18.019531 -55.660156 16.71875 -54.515625 C 15.425781 -53.378906 14.285156 -52.125 13.296875 -50.75 C 12.316406 -49.382812 11.523438 -47.90625 10.921875 -46.3125 C 10.328125 -44.726562 10.03125 -43.078125 10.03125 -41.359375 C 10.03125 -39.535156 10.359375 -37.90625 11.015625 -36.46875 C 11.679688 -35.039062 12.5625 -33.738281 13.65625 -32.5625 C 14.75 -31.394531 15.988281 -30.316406 17.375 -29.328125 C 18.757812 -28.347656 20.175781 -27.375 21.625 -26.40625 C 23.070312 -25.4375 24.488281 -24.4375 25.875 -23.40625 C 27.257812 -22.375 28.5 -21.234375 29.59375 -19.984375 C 30.6875 -18.734375 31.5625 -17.34375 32.21875 -15.8125 C 32.882812 -14.289062 33.21875 -12.546875 33.21875 -10.578125 C 33.21875 -8.671875 32.851562 -6.863281 32.125 -5.15625 C 31.40625 -3.445312 30.414062 -1.957031 29.15625 -0.6875 C 27.894531 0.570312 26.398438 1.570312 24.671875 2.3125 C 22.941406 3.050781 21.09375 3.421875 19.125 3.421875 Z M 19.125 3.421875 "/></g></g></g><g fill="rgb(8.628845%, 33.329773%, 39.219666%)" fill-opacity="1"><g transform="translate(93.588247, 295.441476)"><g><path d="M 3.328125 -31.515625 C 3.328125 -32.398438 3.253906 -33.039062 3.109375 -33.4375 C 2.972656 -33.84375 2.90625 -34.21875 2.90625 -34.5625 C 2.90625 -35.019531 3.148438 -35.394531 3.640625 -35.6875 C 4.140625 -35.976562 4.726562 -36.125 5.40625 -36.125 C 6.976562 -36.125 8.21875 -35.71875 9.125 -34.90625 C 10.03125 -34.09375 10.484375 -33.113281 10.484375 -31.96875 L 10.484375 -27.71875 C 11.128906 -29.039062 11.828125 -30.269531 12.578125 -31.40625 C 13.335938 -32.550781 14.15625 -33.546875 15.03125 -34.390625 C 15.914062 -35.242188 16.859375 -35.90625 17.859375 -36.375 C 18.859375 -36.851562 19.941406 -37.09375 21.109375 -37.09375 C 22.679688 -37.09375 23.972656 -36.800781 24.984375 -36.21875 C 26.003906 -35.632812 26.804688 -34.878906 27.390625 -33.953125 C 27.984375 -33.035156 28.394531 -32.003906 28.625 -30.859375 C 28.851562 -29.722656 28.96875 -28.613281 28.96875 -27.53125 L 28.96875 -7.953125 C 28.96875 -7.734375 28.984375 -7.382812 29.015625 -6.90625 C 29.046875 -6.425781 29.140625 -5.941406 29.296875 -5.453125 C 29.453125 -4.960938 29.691406 -4.53125 30.015625 -4.15625 C 30.335938 -3.789062 30.804688 -3.609375 31.421875 -3.609375 C 32.367188 -3.609375 33.191406 -3.945312 33.890625 -4.625 C 34.585938 -5.300781 35.1875 -6.144531 35.6875 -7.15625 C 36.195312 -8.175781 36.613281 -9.28125 36.9375 -10.46875 C 37.257812 -11.65625 37.53125 -12.769531 37.75 -13.8125 C 37.9375 -14.800781 38.242188 -15.519531 38.671875 -15.96875 C 39.097656 -16.414062 39.546875 -16.640625 40.015625 -16.640625 C 40.378906 -16.640625 40.757812 -16.519531 41.15625 -16.28125 C 41.5625 -16.050781 41.925781 -15.75 42.25 -15.375 C 42.570312 -15.007812 42.832031 -14.59375 43.03125 -14.125 C 43.238281 -13.664062 43.34375 -13.207031 43.34375 -12.75 C 43.34375 -12.6875 43.34375 -12.609375 43.34375 -12.515625 C 43.34375 -12.421875 43.3125 -12.285156 43.25 -12.109375 C 42.84375 -10.535156 42.289062 -8.882812 41.59375 -7.15625 C 40.90625 -5.4375 40.015625 -3.851562 38.921875 -2.40625 C 37.828125 -0.957031 36.523438 0.242188 35.015625 1.203125 C 33.515625 2.160156 31.742188 2.640625 29.703125 2.640625 C 28.441406 2.640625 27.328125 2.398438 26.359375 1.921875 C 25.390625 1.441406 24.554688 0.800781 23.859375 0 C 23.171875 -0.800781 22.648438 -1.738281 22.296875 -2.8125 C 21.941406 -3.894531 21.765625 -5.035156 21.765625 -6.234375 L 21.765625 -25.453125 C 21.765625 -26.191406 21.75 -26.882812 21.71875 -27.53125 C 21.6875 -28.175781 21.597656 -28.742188 21.453125 -29.234375 C 21.316406 -29.734375 21.117188 -30.128906 20.859375 -30.421875 C 20.597656 -30.710938 20.238281 -30.859375 19.78125 -30.859375 C 19.101562 -30.859375 18.269531 -30.394531 17.28125 -29.46875 C 16.289062 -28.550781 15.316406 -27.351562 14.359375 -25.875 C 13.410156 -24.394531 12.570312 -22.722656 11.84375 -20.859375 C 11.125 -18.992188 10.671875 -17.125 10.484375 -15.25 L 10.484375 -1.4375 C 10.484375 -0.96875 10.472656 -0.492188 10.453125 -0.015625 C 10.441406 0.453125 10.351562 0.878906 10.1875 1.265625 C 10.019531 1.648438 9.757812 1.972656 9.40625 2.234375 C 9.050781 2.503906 8.535156 2.640625 7.859375 2.640625 C 7.390625 2.640625 6.882812 2.582031 6.34375 2.46875 C 5.8125 2.363281 5.320312 2.164062 4.875 1.875 C 4.425781 1.582031 4.054688 1.164062 3.765625 0.625 C 3.472656 0.0820312 3.328125 -0.632812 3.328125 -1.53125 Z M 3.328125 -31.515625 "/></g></g></g><g fill="rgb(8.628845%, 33.329773%, 39.219666%)" fill-opacity="1"><g transform="translate(127.729897, 295.441476)"><g><path d="M 37.9375 -15.609375 C 38 -15.984375 38.207031 -16.289062 38.5625 -16.53125 C 38.914062 -16.78125 39.320312 -16.953125 39.78125 -17.046875 C 40.238281 -17.140625 40.722656 -17.140625 41.234375 -17.046875 C 41.742188 -16.953125 42.191406 -16.742188 42.578125 -16.421875 C 42.960938 -16.097656 43.238281 -15.648438 43.40625 -15.078125 C 43.570312 -14.515625 43.550781 -13.785156 43.34375 -12.890625 C 43.0625 -11.597656 42.601562 -10.390625 41.96875 -9.265625 C 41.34375 -8.140625 40.550781 -7.144531 39.59375 -6.28125 C 38.644531 -5.414062 37.519531 -4.738281 36.21875 -4.25 C 34.925781 -3.757812 33.476562 -3.515625 31.875 -3.515625 C 31.019531 -3.515625 30.210938 -3.554688 29.453125 -3.640625 C 28.703125 -3.734375 27.972656 -3.90625 27.265625 -4.15625 C 26.085938 -2.125 24.570312 -0.484375 22.71875 0.765625 C 20.875 2.015625 18.597656 2.640625 15.890625 2.640625 C 13.492188 2.640625 11.429688 2.164062 9.703125 1.21875 C 7.972656 0.28125 6.539062 -0.992188 5.40625 -2.609375 C 4.269531 -4.222656 3.429688 -6.09375 2.890625 -8.21875 C 2.347656 -10.34375 2.078125 -12.59375 2.078125 -14.96875 C 2.078125 -18.445312 2.484375 -21.566406 3.296875 -24.328125 C 4.117188 -27.085938 5.066406 -29.425781 6.140625 -31.34375 C 7.222656 -33.269531 8.296875 -34.738281 9.359375 -35.75 C 10.421875 -36.769531 11.210938 -37.28125 11.734375 -37.28125 C 12.347656 -37.28125 12.910156 -37.007812 13.421875 -36.46875 C 13.929688 -35.9375 14.300781 -35.304688 14.53125 -34.578125 C 14.757812 -33.859375 14.816406 -33.128906 14.703125 -32.390625 C 14.597656 -31.648438 14.238281 -31.078125 13.625 -30.671875 C 13.257812 -30.085938 12.820312 -29.410156 12.3125 -28.640625 C 11.800781 -27.867188 11.320312 -26.90625 10.875 -25.75 C 10.4375 -24.601562 10.0625 -23.195312 9.75 -21.53125 C 9.4375 -19.863281 9.28125 -17.863281 9.28125 -15.53125 C 9.28125 -13.519531 9.457031 -11.773438 9.8125 -10.296875 C 10.164062 -8.816406 10.660156 -7.578125 11.296875 -6.578125 C 11.929688 -5.578125 12.65625 -4.832031 13.46875 -4.34375 C 14.28125 -3.851562 15.148438 -3.609375 16.078125 -3.609375 C 17.429688 -3.609375 18.546875 -3.9375 19.421875 -4.59375 C 20.304688 -5.257812 21.054688 -6.128906 21.671875 -7.203125 C 19.453125 -9.117188 17.765625 -11.546875 16.609375 -14.484375 C 15.453125 -17.421875 14.875 -20.601562 14.875 -24.03125 C 14.875 -25.507812 15.035156 -26.914062 15.359375 -28.25 C 15.679688 -29.59375 16.160156 -30.769531 16.796875 -31.78125 C 17.429688 -32.800781 18.222656 -33.609375 19.171875 -34.203125 C 20.128906 -34.804688 21.238281 -35.109375 22.5 -35.109375 C 23.613281 -35.109375 24.660156 -34.707031 25.640625 -33.90625 C 26.628906 -33.113281 27.492188 -32.007812 28.234375 -30.59375 C 28.972656 -29.175781 29.550781 -27.492188 29.96875 -25.546875 C 30.382812 -23.609375 30.59375 -21.5 30.59375 -19.21875 C 30.59375 -17.46875 30.484375 -15.726562 30.265625 -14 C 30.046875 -12.269531 29.707031 -10.609375 29.25 -9.015625 C 29.582031 -8.890625 29.894531 -8.816406 30.1875 -8.796875 C 30.488281 -8.785156 30.804688 -8.78125 31.140625 -8.78125 C 32.160156 -8.78125 33.0625 -8.960938 33.84375 -9.328125 C 34.625 -9.703125 35.289062 -10.195312 35.84375 -10.8125 C 36.40625 -11.425781 36.851562 -12.148438 37.1875 -12.984375 C 37.53125 -13.816406 37.78125 -14.691406 37.9375 -15.609375 Z M 19.875 -24.390625 C 19.875 -22.265625 20.203125 -20.25 20.859375 -18.34375 C 21.523438 -16.4375 22.394531 -14.773438 23.46875 -13.359375 C 23.65625 -14.859375 23.75 -16.304688 23.75 -17.703125 C 23.75 -19.296875 23.722656 -20.773438 23.671875 -22.140625 C 23.628906 -23.515625 23.523438 -24.695312 23.359375 -25.6875 C 23.191406 -26.675781 22.957031 -27.453125 22.65625 -28.015625 C 22.363281 -28.585938 21.972656 -28.875 21.484375 -28.875 C 20.410156 -28.875 19.875 -27.378906 19.875 -24.390625 Z M 19.875 -24.390625 "/></g></g></g><g fill="rgb(8.628845%, 33.329773%, 39.219666%)" fill-opacity="1"><g transform="translate(162.379744, 295.441476)"><g><path d="M 19.875 -31.515625 C 19.875 -32.398438 19.8125 -33.039062 19.6875 -33.4375 C 19.5625 -33.84375 19.5 -34.21875 19.5 -34.5625 C 19.5 -35.019531 19.738281 -35.394531 20.21875 -35.6875 C 20.695312 -35.976562 21.273438 -36.125 21.953125 -36.125 C 23.515625 -36.125 24.757812 -35.71875 25.6875 -34.90625 C 26.613281 -34.09375 27.078125 -33.113281 27.078125 -31.96875 L 27.078125 -10.296875 C 27.109375 -9.316406 27.191406 -8.410156 27.328125 -7.578125 C 27.460938 -6.742188 27.695312 -6.035156 28.03125 -5.453125 C 28.375 -4.867188 28.835938 -4.414062 29.421875 -4.09375 C 30.015625 -3.769531 30.773438 -3.609375 31.703125 -3.609375 C 32.585938 -3.609375 33.332031 -3.785156 33.9375 -4.140625 C 34.539062 -4.492188 35.023438 -4.976562 35.390625 -5.59375 C 35.765625 -6.207031 36.023438 -6.921875 36.171875 -7.734375 C 36.328125 -8.554688 36.40625 -9.410156 36.40625 -10.296875 L 36.40625 -31.515625 C 36.40625 -32.398438 36.34375 -33.039062 36.21875 -33.4375 C 36.09375 -33.84375 36.03125 -34.21875 36.03125 -34.5625 C 36.03125 -35.019531 36.273438 -35.394531 36.765625 -35.6875 C 37.265625 -35.976562 37.851562 -36.125 38.53125 -36.125 C 40.101562 -36.125 41.34375 -35.71875 42.25 -34.90625 C 43.15625 -34.09375 43.609375 -33.113281 43.609375 -31.96875 L 43.609375 -10.296875 C 43.609375 -8.816406 43.460938 -7.316406 43.171875 -5.796875 C 42.878906 -4.273438 42.316406 -2.890625 41.484375 -1.640625 C 40.660156 -0.390625 39.492188 0.632812 37.984375 1.4375 C 36.472656 2.238281 34.5 2.640625 32.0625 2.640625 C 31.050781 2.640625 30.097656 2.515625 29.203125 2.265625 C 28.304688 2.015625 27.488281 1.679688 26.75 1.265625 C 26.007812 0.847656 25.363281 0.375 24.8125 -0.15625 C 24.257812 -0.695312 23.8125 -1.273438 23.46875 -1.890625 C 23.164062 -1.273438 22.710938 -0.695312 22.109375 -0.15625 C 21.503906 0.375 20.816406 0.847656 20.046875 1.265625 C 19.273438 1.679688 18.441406 2.015625 17.546875 2.265625 C 16.660156 2.515625 15.769531 2.640625 14.875 2.640625 C 13.125 2.640625 11.625 2.4375 10.375 2.03125 C 9.125 1.632812 8.066406 1.085938 7.203125 0.390625 C 6.347656 -0.296875 5.664062 -1.085938 5.15625 -1.984375 C 4.644531 -2.878906 4.25 -3.800781 3.96875 -4.75 C 3.695312 -5.707031 3.519531 -6.675781 3.4375 -7.65625 C 3.363281 -8.644531 3.328125 -9.554688 3.328125 -10.390625 L 3.328125 -31.515625 C 3.328125 -32.398438 3.253906 -33.039062 3.109375 -33.4375 C 2.972656 -33.84375 2.90625 -34.21875 2.90625 -34.5625 C 2.90625 -35.019531 3.148438 -35.394531 3.640625 -35.6875 C 4.140625 -35.976562 4.726562 -36.125 5.40625 -36.125 C 6.976562 -36.125 8.21875 -35.71875 9.125 -34.90625 C 10.03125 -34.09375 10.484375 -33.113281 10.484375 -31.96875 L 10.484375 -10.296875 C 10.484375 -9.472656 10.535156 -8.648438 10.640625 -7.828125 C 10.753906 -7.015625 10.972656 -6.300781 11.296875 -5.6875 C 11.617188 -5.070312 12.085938 -4.570312 12.703125 -4.1875 C 13.316406 -3.800781 14.132812 -3.609375 15.15625 -3.609375 C 16.050781 -3.609375 16.796875 -3.785156 17.390625 -4.140625 C 17.992188 -4.492188 18.476562 -4.976562 18.84375 -5.59375 C 19.21875 -6.207031 19.484375 -6.921875 19.640625 -7.734375 C 19.796875 -8.554688 19.875 -9.410156 19.875 -10.296875 Z M 19.875 -31.515625 "/></g></g></g><g fill="rgb(8.628845%, 33.329773%, 39.219666%)" fill-opacity="1"><g transform="translate(209.503535, 295.441476)"><g><path d="M 13.625 -24.125 C 13.625 -26.03125 13.832031 -27.679688 14.25 -29.078125 C 14.664062 -30.484375 15.242188 -31.640625 15.984375 -32.546875 C 16.722656 -33.453125 17.578125 -34.117188 18.546875 -34.546875 C 19.515625 -34.984375 20.554688 -35.203125 21.671875 -35.203125 C 22.929688 -35.203125 24.160156 -34.894531 25.359375 -34.28125 C 26.566406 -33.664062 27.640625 -32.726562 28.578125 -31.46875 C 29.515625 -30.207031 30.269531 -28.601562 30.84375 -26.65625 C 31.414062 -24.71875 31.703125 -22.425781 31.703125 -19.78125 C 31.703125 -17.925781 31.582031 -16.082031 31.34375 -14.25 C 31.113281 -12.414062 30.753906 -10.671875 30.265625 -9.015625 C 30.597656 -8.890625 30.925781 -8.816406 31.25 -8.796875 C 31.570312 -8.785156 31.90625 -8.78125 32.25 -8.78125 C 33.269531 -8.78125 34.171875 -8.960938 34.953125 -9.328125 C 35.734375 -9.703125 36.410156 -10.195312 36.984375 -10.8125 C 37.554688 -11.425781 38.007812 -12.148438 38.34375 -12.984375 C 38.6875 -13.816406 38.9375 -14.691406 39.09375 -15.609375 C 39.15625 -15.984375 39.363281 -16.289062 39.71875 -16.53125 C 40.070312 -16.78125 40.476562 -16.953125 40.9375 -17.046875 C 41.394531 -17.140625 41.878906 -17.140625 42.390625 -17.046875 C 42.898438 -16.953125 43.335938 -16.742188 43.703125 -16.421875 C 44.078125 -16.097656 44.347656 -15.648438 44.515625 -15.078125 C 44.679688 -14.515625 44.675781 -13.785156 44.5 -12.890625 C 44.21875 -11.597656 43.757812 -10.390625 43.125 -9.265625 C 42.5 -8.140625 41.707031 -7.144531 40.75 -6.28125 C 39.789062 -5.414062 38.664062 -4.738281 37.375 -4.25 C 36.082031 -3.757812 34.632812 -3.515625 33.03125 -3.515625 C 32.164062 -3.515625 31.332031 -3.554688 30.53125 -3.640625 C 29.738281 -3.734375 28.957031 -3.90625 28.1875 -4.15625 C 27.007812 -2.125 25.484375 -0.484375 23.609375 0.765625 C 21.734375 2.015625 19.410156 2.640625 16.640625 2.640625 C 14.453125 2.640625 12.53125 2.253906 10.875 1.484375 C 9.226562 0.710938 7.84375 -0.367188 6.71875 -1.765625 C 5.59375 -3.171875 4.742188 -4.84375 4.171875 -6.78125 C 3.609375 -8.726562 3.328125 -10.859375 3.328125 -13.171875 L 3.328125 -58.3125 C 3.328125 -58.988281 3.269531 -59.523438 3.15625 -59.921875 C 3.050781 -60.328125 2.945312 -60.644531 2.84375 -60.875 C 2.738281 -61.101562 2.628906 -61.285156 2.515625 -61.421875 C 2.410156 -61.566406 2.359375 -61.710938 2.359375 -61.859375 C 2.359375 -62.046875 2.445312 -62.203125 2.625 -62.328125 C 2.8125 -62.453125 3.054688 -62.5625 3.359375 -62.65625 C 3.671875 -62.75 4.003906 -62.816406 4.359375 -62.859375 C 4.710938 -62.898438 5.0625 -62.921875 5.40625 -62.921875 C 6.976562 -62.921875 8.21875 -62.515625 9.125 -61.703125 C 10.03125 -60.890625 10.484375 -59.910156 10.484375 -58.765625 L 10.484375 -14.46875 C 10.484375 -12.894531 10.617188 -11.441406 10.890625 -10.109375 C 11.171875 -8.785156 11.585938 -7.640625 12.140625 -6.671875 C 12.703125 -5.703125 13.40625 -4.945312 14.25 -4.40625 C 15.101562 -3.875 16.097656 -3.609375 17.234375 -3.609375 C 18.398438 -3.609375 19.398438 -3.90625 20.234375 -4.5 C 21.066406 -5.101562 21.757812 -5.914062 22.3125 -6.9375 C 20.957031 -7.882812 19.75 -9 18.6875 -10.28125 C 17.625 -11.5625 16.710938 -12.945312 15.953125 -14.4375 C 15.203125 -15.925781 14.625 -17.492188 14.21875 -19.140625 C 13.820312 -20.796875 13.625 -22.457031 13.625 -24.125 Z M 19.5 -24.484375 C 19.5 -22.203125 19.90625 -20.046875 20.71875 -18.015625 C 21.539062 -15.984375 22.644531 -14.226562 24.03125 -12.75 C 24.207031 -13.863281 24.328125 -14.96875 24.390625 -16.0625 C 24.453125 -17.15625 24.484375 -18.144531 24.484375 -19.03125 C 24.484375 -22.207031 24.148438 -24.65625 23.484375 -26.375 C 22.828125 -28.101562 22.066406 -28.96875 21.203125 -28.96875 C 20.585938 -28.96875 20.148438 -28.554688 19.890625 -27.734375 C 19.628906 -26.921875 19.5 -25.835938 19.5 -24.484375 Z M 19.5 -24.484375 "/></g></g></g><g fill="rgb(8.628845%, 33.329773%, 39.219666%)" fill-opacity="1"><g transform="translate(245.262177, 295.441476)"><g><path d="M 30.078125 -3.609375 C 31.035156 -3.609375 31.859375 -3.945312 32.546875 -4.625 C 33.242188 -5.300781 33.84375 -6.144531 34.34375 -7.15625 C 34.851562 -8.175781 35.269531 -9.28125 35.59375 -10.46875 C 35.914062 -11.65625 36.1875 -12.769531 36.40625 -13.8125 C 36.625 -14.800781 36.941406 -15.519531 37.359375 -15.96875 C 37.773438 -16.414062 38.226562 -16.640625 38.71875 -16.640625 C 39.082031 -16.640625 39.457031 -16.519531 39.84375 -16.28125 C 40.226562 -16.050781 40.582031 -15.75 40.90625 -15.375 C 41.238281 -15.007812 41.503906 -14.59375 41.703125 -14.125 C 41.898438 -13.664062 42 -13.207031 42 -12.75 C 42 -12.6875 42 -12.609375 42 -12.515625 C 42 -12.421875 41.96875 -12.285156 41.90625 -12.109375 C 41.507812 -10.535156 40.960938 -8.882812 40.265625 -7.15625 C 39.578125 -5.4375 38.691406 -3.851562 37.609375 -2.40625 C 36.535156 -0.957031 35.234375 0.242188 33.703125 1.203125 C 32.179688 2.160156 30.40625 2.640625 28.375 2.640625 C 26.707031 2.640625 25.253906 2.285156 24.015625 1.578125 C 22.785156 0.867188 21.816406 -0.0703125 21.109375 -1.25 C 20.160156 -0.164062 19.015625 0.75 17.671875 1.5 C 16.328125 2.257812 14.765625 2.640625 12.984375 2.640625 C 11.140625 2.640625 9.515625 2.269531 8.109375 1.53125 C 6.703125 0.789062 5.519531 -0.21875 4.5625 -1.5 C 3.613281 -2.78125 2.898438 -4.289062 2.421875 -6.03125 C 1.941406 -7.769531 1.703125 -9.640625 1.703125 -11.640625 C 1.703125 -15.585938 2.332031 -19.128906 3.59375 -22.265625 C 4.863281 -25.410156 6.546875 -28.082031 8.640625 -30.28125 C 10.734375 -32.488281 13.128906 -34.175781 15.828125 -35.34375 C 18.523438 -36.507812 21.316406 -37.09375 24.203125 -37.09375 C 25.503906 -37.09375 26.550781 -36.738281 27.34375 -36.03125 C 28.144531 -35.320312 28.546875 -34.351562 28.546875 -33.125 C 28.546875 -32.320312 28.460938 -31.757812 28.296875 -31.4375 C 28.128906 -31.113281 27.816406 -30.953125 27.359375 -30.953125 C 26.921875 -30.953125 26.46875 -30.984375 26 -31.046875 C 25.539062 -31.109375 25.066406 -31.140625 24.578125 -31.140625 C 22.796875 -31.140625 20.976562 -30.742188 19.125 -29.953125 C 17.28125 -29.171875 15.609375 -27.972656 14.109375 -26.359375 C 12.617188 -24.742188 11.394531 -22.695312 10.4375 -20.21875 C 9.488281 -17.738281 9.015625 -14.785156 9.015625 -11.359375 C 9.015625 -8.867188 9.488281 -6.953125 10.4375 -5.609375 C 11.394531 -4.273438 12.707031 -3.609375 14.375 -3.609375 C 15.664062 -3.609375 16.738281 -4.09375 17.59375 -5.0625 C 18.457031 -6.03125 19.15625 -7.175781 19.6875 -8.5 L 19.6875 -23.109375 C 19.6875 -23.566406 19.660156 -23.945312 19.609375 -24.25 C 19.566406 -24.5625 19.519531 -24.820312 19.46875 -25.03125 C 19.425781 -25.25 19.390625 -25.441406 19.359375 -25.609375 C 19.328125 -25.785156 19.3125 -25.953125 19.3125 -26.109375 C 19.3125 -26.597656 19.550781 -26.988281 20.03125 -27.28125 C 20.507812 -27.570312 21.085938 -27.71875 21.765625 -27.71875 C 23.335938 -27.71875 24.582031 -27.304688 25.5 -26.484375 C 26.425781 -25.671875 26.890625 -24.695312 26.890625 -23.5625 L 26.890625 -7.953125 C 26.890625 -7.421875 26.953125 -6.898438 27.078125 -6.390625 C 27.203125 -5.890625 27.382812 -5.429688 27.625 -5.015625 C 27.875 -4.597656 28.207031 -4.257812 28.625 -4 C 29.039062 -3.738281 29.523438 -3.609375 30.078125 -3.609375 Z M 30.078125 -3.609375 "/></g></g></g><g fill="rgb(8.628845%, 33.329773%, 39.219666%)" fill-opacity="1"><g transform="translate(278.757028, 295.441476)"><g><path d="M 10.484375 -28 C 10.828125 -28.644531 11.160156 -29.515625 11.484375 -30.609375 C 11.804688 -31.703125 12.113281 -32.910156 12.40625 -34.234375 C 12.695312 -35.554688 12.960938 -36.941406 13.203125 -38.390625 C 13.453125 -39.835938 13.671875 -41.253906 13.859375 -42.640625 C 14.046875 -44.023438 14.191406 -45.328125 14.296875 -46.546875 C 14.410156 -47.765625 14.46875 -48.804688 14.46875 -49.671875 C 14.46875 -52.804688 14.234375 -55.101562 13.765625 -56.5625 C 13.304688 -58.03125 12.691406 -58.765625 11.921875 -58.765625 C 11.671875 -58.765625 11.453125 -58.640625 11.265625 -58.390625 C 11.085938 -58.148438 10.9375 -57.835938 10.8125 -57.453125 C 10.6875 -57.066406 10.597656 -56.648438 10.546875 -56.203125 C 10.503906 -55.753906 10.484375 -55.347656 10.484375 -54.984375 Z M 23.9375 -13.71875 C 24.113281 -14.644531 24.394531 -15.316406 24.78125 -15.734375 C 25.164062 -16.148438 25.582031 -16.378906 26.03125 -16.421875 C 26.476562 -16.472656 26.929688 -16.363281 27.390625 -16.09375 C 27.859375 -15.832031 28.257812 -15.488281 28.59375 -15.0625 C 28.9375 -14.632812 29.191406 -14.148438 29.359375 -13.609375 C 29.523438 -13.066406 29.550781 -12.535156 29.4375 -12.015625 C 29 -10.753906 28.378906 -9.273438 27.578125 -7.578125 C 26.773438 -5.878906 25.757812 -4.273438 24.53125 -2.765625 C 23.300781 -1.265625 21.851562 0.0078125 20.1875 1.0625 C 18.53125 2.113281 16.625 2.640625 14.46875 2.640625 C 12.644531 2.640625 11.039062 2.335938 9.65625 1.734375 C 8.269531 1.128906 7.109375 0.28125 6.171875 -0.8125 C 5.234375 -1.90625 4.523438 -3.210938 4.046875 -4.734375 C 3.566406 -6.253906 3.328125 -7.957031 3.328125 -9.84375 L 3.328125 -52.90625 C 3.328125 -54.65625 3.550781 -56.273438 4 -57.765625 C 4.445312 -59.265625 5.0625 -60.546875 5.84375 -61.609375 C 6.625 -62.671875 7.539062 -63.503906 8.59375 -64.109375 C 9.644531 -64.710938 10.753906 -65.015625 11.921875 -65.015625 C 13.304688 -65.015625 14.472656 -64.757812 15.421875 -64.25 C 16.378906 -63.738281 17.164062 -63.066406 17.78125 -62.234375 C 18.40625 -61.398438 18.894531 -60.441406 19.25 -59.359375 C 19.601562 -58.285156 19.851562 -57.1875 20 -56.0625 C 20.15625 -54.9375 20.25 -53.828125 20.28125 -52.734375 C 20.3125 -51.640625 20.328125 -50.648438 20.328125 -49.765625 C 20.328125 -47.453125 20.109375 -45.023438 19.671875 -42.484375 C 19.242188 -39.941406 18.695312 -37.4375 18.03125 -34.96875 C 17.375 -32.507812 16.648438 -30.144531 15.859375 -27.875 C 15.078125 -25.613281 14.320312 -23.601562 13.59375 -21.84375 C 12.875 -20.09375 12.226562 -18.660156 11.65625 -17.546875 C 11.09375 -16.441406 10.703125 -15.796875 10.484375 -15.609375 L 10.484375 -10.125 C 10.484375 -8.207031 10.882812 -6.640625 11.6875 -5.421875 C 12.488281 -4.210938 13.769531 -3.609375 15.53125 -3.609375 C 16.601562 -3.609375 17.609375 -3.9375 18.546875 -4.59375 C 19.484375 -5.257812 20.3125 -6.09375 21.03125 -7.09375 C 21.757812 -8.09375 22.367188 -9.1875 22.859375 -10.375 C 23.359375 -11.5625 23.71875 -12.675781 23.9375 -13.71875 Z M 23.9375 -13.71875 "/></g></g></g><g fill="rgb(8.628845%, 33.329773%, 39.219666%)" fill-opacity="1"><g transform="translate(299.593147, 295.441476)"><g><path d="M 10.484375 -28 C 10.828125 -28.644531 11.160156 -29.515625 11.484375 -30.609375 C 11.804688 -31.703125 12.113281 -32.910156 12.40625 -34.234375 C 12.695312 -35.554688 12.960938 -36.941406 13.203125 -38.390625 C 13.453125 -39.835938 13.671875 -41.253906 13.859375 -42.640625 C 14.046875 -44.023438 14.191406 -45.328125 14.296875 -46.546875 C 14.410156 -47.765625 14.46875 -48.804688 14.46875 -49.671875 C 14.46875 -52.804688 14.234375 -55.101562 13.765625 -56.5625 C 13.304688 -58.03125 12.691406 -58.765625 11.921875 -58.765625 C 11.671875 -58.765625 11.453125 -58.640625 11.265625 -58.390625 C 11.085938 -58.148438 10.9375 -57.835938 10.8125 -57.453125 C 10.6875 -57.066406 10.597656 -56.648438 10.546875 -56.203125 C 10.503906 -55.753906 10.484375 -55.347656 10.484375 -54.984375 Z M 23.9375 -13.71875 C 24.113281 -14.644531 24.394531 -15.316406 24.78125 -15.734375 C 25.164062 -16.148438 25.582031 -16.378906 26.03125 -16.421875 C 26.476562 -16.472656 26.929688 -16.363281 27.390625 -16.09375 C 27.859375 -15.832031 28.257812 -15.488281 28.59375 -15.0625 C 28.9375 -14.632812 29.191406 -14.148438 29.359375 -13.609375 C 29.523438 -13.066406 29.550781 -12.535156 29.4375 -12.015625 C 29 -10.753906 28.378906 -9.273438 27.578125 -7.578125 C 26.773438 -5.878906 25.757812 -4.273438 24.53125 -2.765625 C 23.300781 -1.265625 21.851562 0.0078125 20.1875 1.0625 C 18.53125 2.113281 16.625 2.640625 14.46875 2.640625 C 12.644531 2.640625 11.039062 2.335938 9.65625 1.734375 C 8.269531 1.128906 7.109375 0.28125 6.171875 -0.8125 C 5.234375 -1.90625 4.523438 -3.210938 4.046875 -4.734375 C 3.566406 -6.253906 3.328125 -7.957031 3.328125 -9.84375 L 3.328125 -52.90625 C 3.328125 -54.65625 3.550781 -56.273438 4 -57.765625 C 4.445312 -59.265625 5.0625 -60.546875 5.84375 -61.609375 C 6.625 -62.671875 7.539062 -63.503906 8.59375 -64.109375 C 9.644531 -64.710938 10.753906 -65.015625 11.921875 -65.015625 C 13.304688 -65.015625 14.472656 -64.757812 15.421875 -64.25 C 16.378906 -63.738281 17.164062 -63.066406 17.78125 -62.234375 C 18.40625 -61.398438 18.894531 -60.441406 19.25 -59.359375 C 19.601562 -58.285156 19.851562 -57.1875 20 -56.0625 C 20.15625 -54.9375 20.25 -53.828125 20.28125 -52.734375 C 20.3125 -51.640625 20.328125 -50.648438 20.328125 -49.765625 C 20.328125 -47.453125 20.109375 -45.023438 19.671875 -42.484375 C 19.242188 -39.941406 18.695312 -37.4375 18.03125 -34.96875 C 17.375 -32.507812 16.648438 -30.144531 15.859375 -27.875 C 15.078125 -25.613281 14.320312 -23.601562 13.59375 -21.84375 C 12.875 -20.09375 12.226562 -18.660156 11.65625 -17.546875 C 11.09375 -16.441406 10.703125 -15.796875 10.484375 -15.609375 L 10.484375 -10.125 C 10.484375 -8.207031 10.882812 -6.640625 11.6875 -5.421875 C 12.488281 -4.210938 13.769531 -3.609375 15.53125 -3.609375 C 16.601562 -3.609375 17.609375 -3.9375 18.546875 -4.59375 C 19.484375 -5.257812 20.3125 -6.09375 21.03125 -7.09375 C 21.757812 -8.09375 22.367188 -9.1875 22.859375 -10.375 C 23.359375 -11.5625 23.71875 -12.675781 23.9375 -13.71875 Z M 23.9375 -13.71875 "/></g></g></g><g fill="rgb(8.628845%, 33.329773%, 39.219666%)" fill-opacity="1"><g transform="translate(31.980471, 351.034753)"><g><path d="M 21.484375 -2.375 C 20.453125 -1.570312 19.328125 -0.941406 18.109375 -0.484375 C 16.890625 -0.0351562 15.570312 0.1875 14.15625 0.1875 C 12.300781 0.1875 10.597656 -0.203125 9.046875 -0.984375 C 7.492188 -1.765625 6.164062 -2.78125 5.0625 -4.03125 C 3.957031 -5.289062 3.101562 -6.738281 2.5 -8.375 C 1.894531 -10.019531 1.59375 -11.695312 1.59375 -13.40625 C 1.59375 -15.195312 1.910156 -16.910156 2.546875 -18.546875 C 3.191406 -20.179688 4.078125 -21.628906 5.203125 -22.890625 C 6.335938 -24.148438 7.671875 -25.148438 9.203125 -25.890625 C 10.742188 -26.628906 12.410156 -27 14.203125 -27 C 16.066406 -27 17.769531 -26.601562 19.3125 -25.8125 C 20.863281 -25.019531 22.1875 -23.976562 23.28125 -22.6875 C 24.375 -21.40625 25.222656 -19.953125 25.828125 -18.328125 C 26.429688 -16.710938 26.734375 -15.0625 26.734375 -13.375 C 26.734375 -11.53125 26.398438 -9.773438 25.734375 -8.109375 C 25.066406 -6.453125 24.144531 -4.992188 22.96875 -3.734375 L 26.140625 0 L 23.53125 0 Z M 14.15625 -2.1875 C 15.289062 -2.1875 16.335938 -2.367188 17.296875 -2.734375 C 18.253906 -3.097656 19.132812 -3.597656 19.9375 -4.234375 L 16.578125 -8.234375 L 19.1875 -8.234375 L 21.34375 -5.671875 C 22.21875 -6.722656 22.894531 -7.921875 23.375 -9.265625 C 23.851562 -10.617188 24.09375 -12 24.09375 -13.40625 C 24.09375 -14.863281 23.847656 -16.265625 23.359375 -17.609375 C 22.867188 -18.960938 22.179688 -20.15625 21.296875 -21.1875 C 20.421875 -22.21875 19.378906 -23.046875 18.171875 -23.671875 C 16.960938 -24.304688 15.625 -24.625 14.15625 -24.625 C 12.644531 -24.625 11.269531 -24.300781 10.03125 -23.65625 C 8.800781 -23.019531 7.757812 -22.171875 6.90625 -21.109375 C 6.050781 -20.054688 5.390625 -18.851562 4.921875 -17.5 C 4.460938 -16.15625 4.234375 -14.789062 4.234375 -13.40625 C 4.234375 -11.945312 4.472656 -10.539062 4.953125 -9.1875 C 5.429688 -7.84375 6.109375 -6.648438 6.984375 -5.609375 C 7.867188 -4.566406 8.914062 -3.734375 10.125 -3.109375 C 11.332031 -2.492188 12.675781 -2.1875 14.15625 -2.1875 Z M 14.15625 -2.1875 "/></g></g></g><g fill="rgb(8.628845%, 33.329773%, 39.219666%)" fill-opacity="1"><g transform="translate(60.26991, 351.034753)"><g><path d="M 14.234375 -2.1875 C 15.921875 -2.1875 17.320312 -2.503906 18.4375 -3.140625 C 19.5625 -3.785156 20.457031 -4.628906 21.125 -5.671875 C 21.789062 -6.722656 22.253906 -7.914062 22.515625 -9.25 C 22.785156 -10.582031 22.921875 -11.929688 22.921875 -13.296875 L 22.921875 -26.8125 L 25.5625 -26.8125 L 25.5625 -13.296875 C 25.5625 -11.484375 25.359375 -9.765625 24.953125 -8.140625 C 24.554688 -6.515625 23.910156 -5.082031 23.015625 -3.84375 C 22.117188 -2.613281 20.953125 -1.632812 19.515625 -0.90625 C 18.085938 -0.175781 16.34375 0.1875 14.28125 0.1875 C 12.164062 0.1875 10.382812 -0.191406 8.9375 -0.953125 C 7.488281 -1.722656 6.320312 -2.738281 5.4375 -4 C 4.550781 -5.257812 3.921875 -6.691406 3.546875 -8.296875 C 3.171875 -9.910156 2.984375 -11.578125 2.984375 -13.296875 L 2.984375 -26.8125 L 5.59375 -26.8125 L 5.59375 -13.296875 C 5.59375 -11.878906 5.726562 -10.503906 6 -9.171875 C 6.28125 -7.835938 6.753906 -6.65625 7.421875 -5.625 C 8.085938 -4.59375 8.972656 -3.757812 10.078125 -3.125 C 11.191406 -2.5 12.578125 -2.1875 14.234375 -2.1875 Z M 14.234375 -2.1875 "/></g></g></g><g fill="rgb(8.628845%, 33.329773%, 39.219666%)" fill-opacity="1"><g transform="translate(88.785964, 351.034753)"><g><path d="M 3.359375 0 L 3.359375 -26.8125 L 6 -26.8125 L 6 0 Z M 3.359375 0 "/></g></g></g><g fill="rgb(8.628845%, 33.329773%, 39.219666%)" fill-opacity="1"><g transform="translate(98.152827, 351.034753)"><g><path d="M 3.359375 0 L 3.359375 -26.8125 L 6 -26.8125 L 6 -2.34375 L 21.484375 -2.34375 L 21.484375 0 Z M 3.359375 0 "/></g></g></g><g fill="rgb(8.628845%, 33.329773%, 39.219666%)" fill-opacity="1"><g transform="translate(120.172517, 351.034753)"><g><path d="M 22.390625 -24.46875 L 12.84375 -24.46875 L 12.84375 0 L 10.203125 0 L 10.203125 -24.46875 L 0.640625 -24.46875 L 0.640625 -26.8125 L 22.390625 -26.8125 Z M 22.390625 -24.46875 "/></g></g></g><g fill="rgb(8.628845%, 33.329773%, 39.219666%)" fill-opacity="1"><g transform="translate(143.211978, 351.034753)"><g/></g></g><g fill="rgb(8.628845%, 33.329773%, 39.219666%)" fill-opacity="1"><g transform="translate(152.843234, 351.034753)"><g><path d="M 1.59375 -13.59375 C 1.59375 -15.207031 1.875 -16.8125 2.4375 -18.40625 C 3 -20.007812 3.820312 -21.4375 4.90625 -22.6875 C 5.988281 -23.945312 7.320312 -24.972656 8.90625 -25.765625 C 10.5 -26.566406 12.300781 -26.96875 14.3125 -26.96875 C 16.707031 -26.96875 18.753906 -26.425781 20.453125 -25.34375 C 22.148438 -24.257812 23.398438 -22.847656 24.203125 -21.109375 L 22.125 -19.828125 C 21.695312 -20.710938 21.175781 -21.457031 20.5625 -22.0625 C 19.945312 -22.664062 19.285156 -23.15625 18.578125 -23.53125 C 17.867188 -23.90625 17.132812 -24.171875 16.375 -24.328125 C 15.625 -24.492188 14.882812 -24.578125 14.15625 -24.578125 C 12.550781 -24.578125 11.128906 -24.25 9.890625 -23.59375 C 8.660156 -22.945312 7.625 -22.09375 6.78125 -21.03125 C 5.9375 -19.976562 5.300781 -18.789062 4.875 -17.46875 C 4.445312 -16.144531 4.234375 -14.800781 4.234375 -13.4375 C 4.234375 -11.957031 4.488281 -10.535156 5 -9.171875 C 5.519531 -7.816406 6.222656 -6.613281 7.109375 -5.5625 C 8.003906 -4.519531 9.0625 -3.691406 10.28125 -3.078125 C 11.507812 -2.460938 12.84375 -2.15625 14.28125 -2.15625 C 15.03125 -2.15625 15.800781 -2.25 16.59375 -2.4375 C 17.382812 -2.625 18.148438 -2.925781 18.890625 -3.34375 C 19.640625 -3.757812 20.328125 -4.273438 20.953125 -4.890625 C 21.585938 -5.503906 22.117188 -6.253906 22.546875 -7.140625 L 24.734375 -6 C 24.304688 -5 23.703125 -4.113281 22.921875 -3.34375 C 22.140625 -2.570312 21.269531 -1.921875 20.3125 -1.390625 C 19.363281 -0.867188 18.351562 -0.46875 17.28125 -0.1875 C 16.207031 0.09375 15.15625 0.234375 14.125 0.234375 C 12.289062 0.234375 10.601562 -0.164062 9.0625 -0.96875 C 7.53125 -1.78125 6.207031 -2.832031 5.09375 -4.125 C 3.988281 -5.425781 3.128906 -6.898438 2.515625 -8.546875 C 1.898438 -10.203125 1.59375 -11.882812 1.59375 -13.59375 Z M 1.59375 -13.59375 "/></g></g></g><g fill="rgb(8.628845%, 33.329773%, 39.219666%)" fill-opacity="1"><g transform="translate(178.753194, 351.034753)"><g><path d="M 14.15625 0.1875 C 12.300781 0.1875 10.597656 -0.191406 9.046875 -0.953125 C 7.492188 -1.722656 6.164062 -2.742188 5.0625 -4.015625 C 3.957031 -5.285156 3.101562 -6.738281 2.5 -8.375 C 1.894531 -10.019531 1.59375 -11.695312 1.59375 -13.40625 C 1.59375 -15.195312 1.910156 -16.910156 2.546875 -18.546875 C 3.191406 -20.179688 4.078125 -21.628906 5.203125 -22.890625 C 6.335938 -24.148438 7.671875 -25.148438 9.203125 -25.890625 C 10.742188 -26.628906 12.410156 -27 14.203125 -27 C 16.066406 -27 17.769531 -26.601562 19.3125 -25.8125 C 20.863281 -25.019531 22.1875 -23.976562 23.28125 -22.6875 C 24.375 -21.40625 25.222656 -19.953125 25.828125 -18.328125 C 26.429688 -16.710938 26.734375 -15.0625 26.734375 -13.375 C 26.734375 -11.582031 26.410156 -9.867188 25.765625 -8.234375 C 25.128906 -6.597656 24.25 -5.15625 23.125 -3.90625 C 22.007812 -2.664062 20.679688 -1.671875 19.140625 -0.921875 C 17.609375 -0.179688 15.945312 0.1875 14.15625 0.1875 Z M 4.234375 -13.40625 C 4.234375 -11.945312 4.472656 -10.539062 4.953125 -9.1875 C 5.429688 -7.84375 6.109375 -6.648438 6.984375 -5.609375 C 7.867188 -4.566406 8.914062 -3.734375 10.125 -3.109375 C 11.332031 -2.492188 12.675781 -2.1875 14.15625 -2.1875 C 15.664062 -2.1875 17.035156 -2.515625 18.265625 -3.171875 C 19.503906 -3.828125 20.550781 -4.679688 21.40625 -5.734375 C 22.269531 -6.796875 22.929688 -7.992188 23.390625 -9.328125 C 23.859375 -10.660156 24.09375 -12.019531 24.09375 -13.40625 C 24.09375 -14.863281 23.847656 -16.265625 23.359375 -17.609375 C 22.867188 -18.960938 22.179688 -20.15625 21.296875 -21.1875 C 20.421875 -22.21875 19.378906 -23.039062 18.171875 -23.65625 C 16.960938 -24.269531 15.625 -24.578125 14.15625 -24.578125 C 12.644531 -24.578125 11.269531 -24.253906 10.03125 -23.609375 C 8.800781 -22.972656 7.757812 -22.125 6.90625 -21.0625 C 6.050781 -20.007812 5.390625 -18.816406 4.921875 -17.484375 C 4.460938 -16.148438 4.234375 -14.789062 4.234375 -13.40625 Z M 4.234375 -13.40625 "/></g></g></g><g fill="rgb(8.628845%, 33.329773%, 39.219666%)" fill-opacity="1"><g transform="translate(207.118175, 351.034753)"><g><path d="M 27.109375 0 L 27.109375 -22.015625 L 17.328125 -4.984375 L 15.78125 -4.984375 L 6 -22.015625 L 6 0 L 3.359375 0 L 3.359375 -26.8125 L 6.078125 -26.8125 L 16.546875 -8.453125 L 27.078125 -26.8125 L 29.765625 -26.8125 L 29.765625 0 Z M 27.109375 0 "/></g></g></g><g fill="rgb(8.628845%, 33.329773%, 39.219666%)" fill-opacity="1"><g transform="translate(240.242124, 351.034753)"><g><path d="M 3.359375 0 L 3.359375 -26.8125 L 14.46875 -26.8125 C 15.625 -26.8125 16.6875 -26.566406 17.65625 -26.078125 C 18.625 -25.585938 19.457031 -24.945312 20.15625 -24.15625 C 20.863281 -23.363281 21.421875 -22.460938 21.828125 -21.453125 C 22.234375 -20.441406 22.4375 -19.421875 22.4375 -18.390625 C 22.4375 -17.285156 22.242188 -16.222656 21.859375 -15.203125 C 21.484375 -14.179688 20.957031 -13.28125 20.28125 -12.5 C 19.601562 -11.71875 18.789062 -11.085938 17.84375 -10.609375 C 16.894531 -10.128906 15.84375 -9.890625 14.6875 -9.890625 L 6 -9.890625 L 6 0 Z M 6 -12.234375 L 14.578125 -12.234375 C 15.359375 -12.234375 16.066406 -12.398438 16.703125 -12.734375 C 17.347656 -13.078125 17.894531 -13.53125 18.34375 -14.09375 C 18.800781 -14.664062 19.15625 -15.320312 19.40625 -16.0625 C 19.664062 -16.8125 19.796875 -17.585938 19.796875 -18.390625 C 19.796875 -19.222656 19.648438 -20.007812 19.359375 -20.75 C 19.066406 -21.488281 18.675781 -22.132812 18.1875 -22.6875 C 17.695312 -23.25 17.117188 -23.6875 16.453125 -24 C 15.785156 -24.3125 15.082031 -24.46875 14.34375 -24.46875 L 6 -24.46875 Z M 6 -12.234375 "/></g></g></g><g fill="rgb(8.628845%, 33.329773%, 39.219666%)" fill-opacity="1"><g transform="translate(263.734828, 351.034753)"><g><path d="M 11.671875 -26.8125 L 13.890625 -26.8125 L 25.03125 0 L 22.25 0 L 18.765625 -8.390625 L 6.71875 -8.390625 L 3.28125 0 L 0.453125 0 Z M 18.171875 -10.46875 L 12.765625 -23.71875 L 7.28125 -10.46875 Z M 18.171875 -10.46875 "/></g></g></g><g fill="rgb(8.628845%, 33.329773%, 39.219666%)" fill-opacity="1"><g transform="translate(289.267076, 351.034753)"><g><path d="M 6 -21.90625 L 6 0 L 3.359375 0 L 3.359375 -26.8125 L 5.40625 -26.8125 L 23.15625 -4.5 L 23.15625 -26.78125 L 25.796875 -26.78125 L 25.796875 0 L 23.484375 0 Z M 6 -21.90625 "/></g></g></g><g fill="rgb(8.628845%, 33.329773%, 39.219666%)" fill-opacity="1"><g transform="translate(318.4252, 351.034753)"><g><path d="M 3.515625 -26.8125 L 12.28125 -12.390625 L 21.109375 -26.8125 L 23.984375 -26.8125 L 13.59375 -9.96875 L 13.59375 0 L 10.953125 0 L 10.953125 -10.046875 L 0.609375 -26.8125 Z M 3.515625 -26.8125 "/></g></g></g></svg>